<svg width="3588" height="1004" xmlns="http://www.w3.org/2000/svg" xmlns:xlink="http://www.w3.org/1999/xlink" xml:space="preserve" overflow="hidden"><defs><filter id="fx0" x="-10%" y="-10%" width="120%" height="120%" filterUnits="userSpaceOnUse" primitiveUnits="userSpaceOnUse"><feComponentTransfer color-interpolation-filters="sRGB"><feFuncR type="discrete" tableValues="0 0"/><feFuncG type="discrete" tableValues="0 0"/><feFuncB type="discrete" tableValues="0 0"/><feFuncA type="linear" slope="0.631373" intercept="0"/></feComponentTransfer><feGaussianBlur stdDeviation="6.875 6.875"/></filter><filter id="fx1" x="-10%" y="-10%" width="120%" height="120%" filterUnits="userSpaceOnUse" primitiveUnits="userSpaceOnUse"><feComponentTransfer color-interpolation-filters="sRGB"><feFuncR type="discrete" tableValues="0 0"/><feFuncG type="discrete" tableValues="0 0"/><feFuncB type="discrete" tableValues="0 0"/><feFuncA type="linear" slope="0.631373" intercept="0"/></feComponentTransfer><feGaussianBlur stdDeviation="6.875 6.875"/></filter><filter id="fx2" x="-10%" y="-10%" width="120%" height="120%" filterUnits="userSpaceOnUse" primitiveUnits="userSpaceOnUse"><feComponentTransfer color-interpolation-filters="sRGB"><feFuncR type="discrete" tableValues="0 0"/><feFuncG type="discrete" tableValues="0 0"/><feFuncB type="discrete" tableValues="0 0"/><feFuncA type="linear" slope="0.631373" intercept="0"/></feComponentTransfer><feGaussianBlur stdDeviation="6.875 6.875"/></filter><filter id="fx3" x="-10%" y="-10%" width="120%" height="120%" filterUnits="userSpaceOnUse" primitiveUnits="userSpaceOnUse"><feComponentTransfer color-interpolation-filters="sRGB"><feFuncR type="discrete" tableValues="0 0"/><feFuncG type="discrete" tableValues="0 0"/><feFuncB type="discrete" tableValues="0 0"/><feFuncA type="linear" slope="0.631373" intercept="0"/></feComponentTransfer><feGaussianBlur stdDeviation="6.875 6.875"/></filter><filter id="fx4" x="-10%" y="-10%" width="120%" height="120%" filterUnits="userSpaceOnUse" primitiveUnits="userSpaceOnUse"><feComponentTransfer color-interpolation-filters="sRGB"><feFuncR type="discrete" tableValues="0 0"/><feFuncG type="discrete" tableValues="0 0"/><feFuncB type="discrete" tableValues="0 0"/><feFuncA type="linear" slope="0.631373" intercept="0"/></feComponentTransfer><feGaussianBlur stdDeviation="6.875 6.875"/></filter><filter id="fx5" x="-10%" y="-10%" width="120%" height="120%" filterUnits="userSpaceOnUse" primitiveUnits="userSpaceOnUse"><feComponentTransfer color-interpolation-filters="sRGB"><feFuncR type="discrete" tableValues="0 0"/><feFuncG type="discrete" tableValues="0 0"/><feFuncB type="discrete" tableValues="0 0"/><feFuncA type="linear" slope="0.631373" intercept="0"/></feComponentTransfer><feGaussianBlur stdDeviation="6.875 6.875"/></filter><filter id="fx6" x="-10%" y="-10%" width="120%" height="120%" filterUnits="userSpaceOnUse" primitiveUnits="userSpaceOnUse"><feComponentTransfer color-interpolation-filters="sRGB"><feFuncR type="discrete" tableValues="0 0"/><feFuncG type="discrete" tableValues="0 0"/><feFuncB type="discrete" tableValues="0 0"/><feFuncA type="linear" slope="0.631373" intercept="0"/></feComponentTransfer><feGaussianBlur stdDeviation="6.875 6.875"/></filter><filter id="fx7" x="-10%" y="-10%" width="120%" height="120%" filterUnits="userSpaceOnUse" primitiveUnits="userSpaceOnUse"><feComponentTransfer color-interpolation-filters="sRGB"><feFuncR type="discrete" tableValues="0 0"/><feFuncG type="discrete" tableValues="0 0"/><feFuncB type="discrete" tableValues="0 0"/><feFuncA type="linear" slope="0.631373" intercept="0"/></feComponentTransfer><feGaussianBlur stdDeviation="6.875 6.875"/></filter><filter id="fx8" x="-10%" y="-10%" width="120%" height="120%" filterUnits="userSpaceOnUse" primitiveUnits="userSpaceOnUse"><feComponentTransfer color-interpolation-filters="sRGB"><feFuncR type="discrete" tableValues="0 0"/><feFuncG type="discrete" tableValues="0 0"/><feFuncB type="discrete" tableValues="0 0"/><feFuncA type="linear" slope="0.631373" intercept="0"/></feComponentTransfer><feGaussianBlur stdDeviation="6.875 6.875"/></filter><filter id="fx9" x="-10%" y="-10%" width="120%" height="120%" filterUnits="userSpaceOnUse" primitiveUnits="userSpaceOnUse"><feComponentTransfer color-interpolation-filters="sRGB"><feFuncR type="discrete" tableValues="0 0"/><feFuncG type="discrete" tableValues="0 0"/><feFuncB type="discrete" tableValues="0 0"/><feFuncA type="linear" slope="0.631373" intercept="0"/></feComponentTransfer><feGaussianBlur stdDeviation="6.875 6.875"/></filter><filter id="fx10" x="-10%" y="-10%" width="120%" height="120%" filterUnits="userSpaceOnUse" primitiveUnits="userSpaceOnUse"><feComponentTransfer color-interpolation-filters="sRGB"><feFuncR type="discrete" tableValues="0 0"/><feFuncG type="discrete" tableValues="0 0"/><feFuncB type="discrete" tableValues="0 0"/><feFuncA type="linear" slope="0.631373" intercept="0"/></feComponentTransfer><feGaussianBlur stdDeviation="6.875 6.875"/></filter><filter id="fx11" x="-10%" y="-10%" width="120%" height="120%" filterUnits="userSpaceOnUse" primitiveUnits="userSpaceOnUse"><feComponentTransfer color-interpolation-filters="sRGB"><feFuncR type="discrete" tableValues="0 0"/><feFuncG type="discrete" tableValues="0 0"/><feFuncB type="discrete" tableValues="0 0"/><feFuncA type="linear" slope="0.631373" intercept="0"/></feComponentTransfer><feGaussianBlur stdDeviation="6.875 6.875"/></filter><filter id="fx12" x="-10%" y="-10%" width="120%" height="120%" filterUnits="userSpaceOnUse" primitiveUnits="userSpaceOnUse"><feComponentTransfer color-interpolation-filters="sRGB"><feFuncR type="discrete" tableValues="0 0"/><feFuncG type="discrete" tableValues="0 0"/><feFuncB type="discrete" tableValues="0 0"/><feFuncA type="linear" slope="0.631373" intercept="0"/></feComponentTransfer><feGaussianBlur stdDeviation="6.875 6.875"/></filter><filter id="fx13" x="-10%" y="-10%" width="120%" height="120%" filterUnits="userSpaceOnUse" primitiveUnits="userSpaceOnUse"><feComponentTransfer color-interpolation-filters="sRGB"><feFuncR type="discrete" tableValues="0 0"/><feFuncG type="discrete" tableValues="0 0"/><feFuncB type="discrete" tableValues="0 0"/><feFuncA type="linear" slope="0.631373" intercept="0"/></feComponentTransfer><feGaussianBlur stdDeviation="6.875 6.875"/></filter><filter id="fx14" x="-10%" y="-10%" width="120%" height="120%" filterUnits="userSpaceOnUse" primitiveUnits="userSpaceOnUse"><feComponentTransfer color-interpolation-filters="sRGB"><feFuncR type="discrete" tableValues="0 0"/><feFuncG type="discrete" tableValues="0 0"/><feFuncB type="discrete" tableValues="0 0"/><feFuncA type="linear" slope="0.631373" intercept="0"/></feComponentTransfer><feGaussianBlur stdDeviation="6.875 6.875"/></filter><filter id="fx15" x="-10%" y="-10%" width="120%" height="120%" filterUnits="userSpaceOnUse" primitiveUnits="userSpaceOnUse"><feComponentTransfer color-interpolation-filters="sRGB"><feFuncR type="discrete" tableValues="0 0"/><feFuncG type="discrete" tableValues="0 0"/><feFuncB type="discrete" tableValues="0 0"/><feFuncA type="linear" slope="0.631373" intercept="0"/></feComponentTransfer><feGaussianBlur stdDeviation="6.875 6.875"/></filter><filter id="fx16" x="-10%" y="-10%" width="120%" height="120%" filterUnits="userSpaceOnUse" primitiveUnits="userSpaceOnUse"><feComponentTransfer color-interpolation-filters="sRGB"><feFuncR type="discrete" tableValues="0 0"/><feFuncG type="discrete" tableValues="0 0"/><feFuncB type="discrete" tableValues="0 0"/><feFuncA type="linear" slope="0.631373" intercept="0"/></feComponentTransfer><feGaussianBlur stdDeviation="6.875 6.875"/></filter><filter id="fx17" x="-10%" y="-10%" width="120%" height="120%" filterUnits="userSpaceOnUse" primitiveUnits="userSpaceOnUse"><feComponentTransfer color-interpolation-filters="sRGB"><feFuncR type="discrete" tableValues="0 0"/><feFuncG type="discrete" tableValues="0 0"/><feFuncB type="discrete" tableValues="0 0"/><feFuncA type="linear" slope="0.631373" intercept="0"/></feComponentTransfer><feGaussianBlur stdDeviation="6.875 6.875"/></filter><filter id="fx18" x="-10%" y="-10%" width="120%" height="120%" filterUnits="userSpaceOnUse" primitiveUnits="userSpaceOnUse"><feComponentTransfer color-interpolation-filters="sRGB"><feFuncR type="discrete" tableValues="0 0"/><feFuncG type="discrete" tableValues="0 0"/><feFuncB type="discrete" tableValues="0 0"/><feFuncA type="linear" slope="0.631373" intercept="0"/></feComponentTransfer><feGaussianBlur stdDeviation="6.875 6.875"/></filter><filter id="fx19" x="-10%" y="-10%" width="120%" height="120%" filterUnits="userSpaceOnUse" primitiveUnits="userSpaceOnUse"><feComponentTransfer color-interpolation-filters="sRGB"><feFuncR type="discrete" tableValues="0 0"/><feFuncG type="discrete" tableValues="0 0"/><feFuncB type="discrete" tableValues="0 0"/><feFuncA type="linear" slope="0.631373" intercept="0"/></feComponentTransfer><feGaussianBlur stdDeviation="6.875 6.875"/></filter><filter id="fx20" x="-10%" y="-10%" width="120%" height="120%" filterUnits="userSpaceOnUse" primitiveUnits="userSpaceOnUse"><feComponentTransfer color-interpolation-filters="sRGB"><feFuncR type="discrete" tableValues="0 0"/><feFuncG type="discrete" tableValues="0 0"/><feFuncB type="discrete" tableValues="0 0"/><feFuncA type="linear" slope="0.631373" intercept="0"/></feComponentTransfer><feGaussianBlur stdDeviation="6.875 6.875"/></filter><filter id="fx21" x="-10%" y="-10%" width="120%" height="120%" filterUnits="userSpaceOnUse" primitiveUnits="userSpaceOnUse"><feComponentTransfer color-interpolation-filters="sRGB"><feFuncR type="discrete" tableValues="0 0"/><feFuncG type="discrete" tableValues="0 0"/><feFuncB type="discrete" tableValues="0 0"/><feFuncA type="linear" slope="0.631373" intercept="0"/></feComponentTransfer><feGaussianBlur stdDeviation="6.875 6.875"/></filter><filter id="fx22" x="-10%" y="-10%" width="120%" height="120%" filterUnits="userSpaceOnUse" primitiveUnits="userSpaceOnUse"><feComponentTransfer color-interpolation-filters="sRGB"><feFuncR type="discrete" tableValues="0 0"/><feFuncG type="discrete" tableValues="0 0"/><feFuncB type="discrete" tableValues="0 0"/><feFuncA type="linear" slope="0.631373" intercept="0"/></feComponentTransfer><feGaussianBlur stdDeviation="6.875 6.875"/></filter><filter id="fx23" x="-10%" y="-10%" width="120%" height="120%" filterUnits="userSpaceOnUse" primitiveUnits="userSpaceOnUse"><feComponentTransfer color-interpolation-filters="sRGB"><feFuncR type="discrete" tableValues="0 0"/><feFuncG type="discrete" tableValues="0 0"/><feFuncB type="discrete" tableValues="0 0"/><feFuncA type="linear" slope="0.631373" intercept="0"/></feComponentTransfer><feGaussianBlur stdDeviation="6.875 6.875"/></filter><filter id="fx24" x="-10%" y="-10%" width="120%" height="120%" filterUnits="userSpaceOnUse" primitiveUnits="userSpaceOnUse"><feComponentTransfer color-interpolation-filters="sRGB"><feFuncR type="discrete" tableValues="0 0"/><feFuncG type="discrete" tableValues="0 0"/><feFuncB type="discrete" tableValues="0 0"/><feFuncA type="linear" slope="0.631373" intercept="0"/></feComponentTransfer><feGaussianBlur stdDeviation="6.875 6.875"/></filter><filter id="fx25" x="-10%" y="-10%" width="120%" height="120%" filterUnits="userSpaceOnUse" primitiveUnits="userSpaceOnUse"><feComponentTransfer color-interpolation-filters="sRGB"><feFuncR type="discrete" tableValues="0 0"/><feFuncG type="discrete" tableValues="0 0"/><feFuncB type="discrete" tableValues="0 0"/><feFuncA type="linear" slope="0.631373" intercept="0"/></feComponentTransfer><feGaussianBlur stdDeviation="6.875 6.875"/></filter><filter id="fx26" x="-10%" y="-10%" width="120%" height="120%" filterUnits="userSpaceOnUse" primitiveUnits="userSpaceOnUse"><feComponentTransfer color-interpolation-filters="sRGB"><feFuncR type="discrete" tableValues="0 0"/><feFuncG type="discrete" tableValues="0 0"/><feFuncB type="discrete" tableValues="0 0"/><feFuncA type="linear" slope="0.631373" intercept="0"/></feComponentTransfer><feGaussianBlur stdDeviation="6.875 6.875"/></filter><filter id="fx27" x="-10%" y="-10%" width="120%" height="120%" filterUnits="userSpaceOnUse" primitiveUnits="userSpaceOnUse"><feComponentTransfer color-interpolation-filters="sRGB"><feFuncR type="discrete" tableValues="0 0"/><feFuncG type="discrete" tableValues="0 0"/><feFuncB type="discrete" tableValues="0 0"/><feFuncA type="linear" slope="0.631373" intercept="0"/></feComponentTransfer><feGaussianBlur stdDeviation="6.875 6.875"/></filter><filter id="fx28" x="-10%" y="-10%" width="120%" height="120%" filterUnits="userSpaceOnUse" primitiveUnits="userSpaceOnUse"><feComponentTransfer color-interpolation-filters="sRGB"><feFuncR type="discrete" tableValues="0 0"/><feFuncG type="discrete" tableValues="0 0"/><feFuncB type="discrete" tableValues="0 0"/><feFuncA type="linear" slope="0.631373" intercept="0"/></feComponentTransfer><feGaussianBlur stdDeviation="6.875 6.875"/></filter><filter id="fx29" x="-10%" y="-10%" width="120%" height="120%" filterUnits="userSpaceOnUse" primitiveUnits="userSpaceOnUse"><feComponentTransfer color-interpolation-filters="sRGB"><feFuncR type="discrete" tableValues="0 0"/><feFuncG type="discrete" tableValues="0 0"/><feFuncB type="discrete" tableValues="0 0"/><feFuncA type="linear" slope="0.631373" intercept="0"/></feComponentTransfer><feGaussianBlur stdDeviation="6.875 6.875"/></filter><clipPath id="clip30"><rect x="459" y="832" width="3588" height="1004"/></clipPath><clipPath id="clip31"><rect x="56" y="41" width="70" height="111"/></clipPath><linearGradient x1="963.5" y1="853" x2="963.5" y2="990" gradientUnits="userSpaceOnUse" spreadMethod="reflect" id="fill32"><stop offset="0" stop-color="#F18C55"/><stop offset="0.5" stop-color="#F67B28"/><stop offset="1" stop-color="#E56B17"/></linearGradient><clipPath id="clip33"><rect x="49" y="41" width="88" height="111"/></clipPath><linearGradient x1="1286" y1="853" x2="1286" y2="990" gradientUnits="userSpaceOnUse" spreadMethod="reflect" id="fill34"><stop offset="0" stop-color="#F18C55"/><stop offset="0.5" stop-color="#F67B28"/><stop offset="1" stop-color="#E56B17"/></linearGradient><clipPath id="clip35"><rect x="52" y="41" width="85" height="111"/></clipPath><linearGradient x1="1608" y1="853" x2="1608" y2="990" gradientUnits="userSpaceOnUse" spreadMethod="reflect" id="fill36"><stop offset="0" stop-color="#F18C55"/><stop offset="0.5" stop-color="#F67B28"/><stop offset="1" stop-color="#E56B17"/></linearGradient><clipPath id="clip37"><rect x="52" y="41" width="85" height="111"/></clipPath><linearGradient x1="641" y1="853" x2="641" y2="990" gradientUnits="userSpaceOnUse" spreadMethod="reflect" id="fill38"><stop offset="0" stop-color="#AFAFAF"/><stop offset="0.5" stop-color="#A5A5A5"/><stop offset="1" stop-color="#929292"/></linearGradient><clipPath id="clip39"><rect x="56" y="41" width="70" height="111"/></clipPath><linearGradient x1="1930.5" y1="853" x2="1930.5" y2="990" gradientUnits="userSpaceOnUse" spreadMethod="reflect" id="fill40"><stop offset="0" stop-color="#AFAFAF"/><stop offset="0.5" stop-color="#A5A5A5"/><stop offset="1" stop-color="#929292"/></linearGradient><clipPath id="clip41"><rect x="56" y="41" width="70" height="111"/></clipPath><linearGradient x1="2897.5" y1="852" x2="2897.5" y2="989" gradientUnits="userSpaceOnUse" spreadMethod="reflect" id="fill42"><stop offset="0" stop-color="#F18C55"/><stop offset="0.5" stop-color="#F67B28"/><stop offset="1" stop-color="#E56B17"/></linearGradient><clipPath id="clip43"><rect x="49" y="41" width="88" height="111"/></clipPath><linearGradient x1="3220" y1="852" x2="3220" y2="989" gradientUnits="userSpaceOnUse" spreadMethod="reflect" id="fill44"><stop offset="0" stop-color="#F18C55"/><stop offset="0.5" stop-color="#F67B28"/><stop offset="1" stop-color="#E56B17"/></linearGradient><clipPath id="clip45"><rect x="52" y="41" width="85" height="111"/></clipPath><linearGradient x1="3542" y1="852" x2="3542" y2="989" gradientUnits="userSpaceOnUse" spreadMethod="reflect" id="fill46"><stop offset="0" stop-color="#F18C55"/><stop offset="0.5" stop-color="#F67B28"/><stop offset="1" stop-color="#E56B17"/></linearGradient><clipPath id="clip47"><rect x="52" y="41" width="85" height="111"/></clipPath><linearGradient x1="2575" y1="852" x2="2575" y2="989" gradientUnits="userSpaceOnUse" spreadMethod="reflect" id="fill48"><stop offset="0" stop-color="#AFAFAF"/><stop offset="0.5" stop-color="#A5A5A5"/><stop offset="1" stop-color="#929292"/></linearGradient><clipPath id="clip49"><rect x="56" y="41" width="70" height="111"/></clipPath><linearGradient x1="3864.5" y1="852" x2="3864.5" y2="989" gradientUnits="userSpaceOnUse" spreadMethod="reflect" id="fill50"><stop offset="0" stop-color="#AFAFAF"/><stop offset="0.5" stop-color="#A5A5A5"/><stop offset="1" stop-color="#929292"/></linearGradient><clipPath id="clip51"><rect x="56" y="41" width="70" height="111"/></clipPath><linearGradient x1="1930.5" y1="1144" x2="1930.5" y2="1281" gradientUnits="userSpaceOnUse" spreadMethod="reflect" id="fill52"><stop offset="0" stop-color="#F18C55"/><stop offset="0.5" stop-color="#F67B28"/><stop offset="1" stop-color="#E56B17"/></linearGradient><clipPath id="clip53"><rect x="49" y="41" width="88" height="111"/></clipPath><linearGradient x1="2253" y1="1144" x2="2253" y2="1281" gradientUnits="userSpaceOnUse" spreadMethod="reflect" id="fill54"><stop offset="0" stop-color="#F18C55"/><stop offset="0.5" stop-color="#F67B28"/><stop offset="1" stop-color="#E56B17"/></linearGradient><clipPath id="clip55"><rect x="52" y="41" width="85" height="111"/></clipPath><linearGradient x1="2575" y1="1144" x2="2575" y2="1281" gradientUnits="userSpaceOnUse" spreadMethod="reflect" id="fill56"><stop offset="0" stop-color="#F18C55"/><stop offset="0.5" stop-color="#F67B28"/><stop offset="1" stop-color="#E56B17"/></linearGradient><clipPath id="clip57"><rect x="52" y="41" width="85" height="111"/></clipPath><linearGradient x1="1608" y1="1144" x2="1608" y2="1281" gradientUnits="userSpaceOnUse" spreadMethod="reflect" id="fill58"><stop offset="0" stop-color="#AFAFAF"/><stop offset="0.5" stop-color="#A5A5A5"/><stop offset="1" stop-color="#929292"/></linearGradient><clipPath id="clip59"><rect x="56" y="41" width="70" height="111"/></clipPath><linearGradient x1="2897.5" y1="1144" x2="2897.5" y2="1281" gradientUnits="userSpaceOnUse" spreadMethod="reflect" id="fill60"><stop offset="0" stop-color="#AFAFAF"/><stop offset="0.5" stop-color="#A5A5A5"/><stop offset="1" stop-color="#929292"/></linearGradient></defs><g clip-path="url(#clip30)" transform="translate(-459 -832)"><text font-family="HYPost-Light,HYPost-Light_MSFontService,sans-serif" font-weight="700" font-size="55" transform="matrix(1 0 0 1 2422.35 1590)">(</text><text font-family="HYPost-Light,HYPost-Light_MSFontService,sans-serif" font-weight="700" font-size="55" transform="matrix(1 0 0 1 2449.28 1590)">오른쪽</text><text font-family="HYPost-Light,HYPost-Light_MSFontService,sans-serif" font-weight="700" font-size="55" transform="matrix(1 0 0 1 2628.6 1590)">드래그</text><text font-family="HYPost-Light,HYPost-Light_MSFontService,sans-serif" font-weight="700" font-size="55" transform="matrix(1 0 0 1 2790.16 1590)">)</text><text font-family="HYPost-Light,HYPost-Light_MSFontService,sans-serif" font-weight="700" font-size="55" transform="matrix(1 0 0 1 1995.01 1728)">초과하면</text><text font-family="HYPost-Light,HYPost-Light_MSFontService,sans-serif" font-weight="700" font-size="55" transform="matrix(1 0 0 1 2228.19 1728)">자연스럽게</text><text font-family="HYPost-Light,HYPost-Light_MSFontService,sans-serif" font-weight="700" font-size="55" transform="matrix(1 0 0 1 1870.69 1794)">이어지도록</text><text font-family="HYPost-Light,HYPost-Light_MSFontService,sans-serif" font-weight="700" font-size="55" transform="matrix(1 0 0 1 2157.72 1794)">scroll offset </text><text font-family="HYPost-Light,HYPost-Light_MSFontService,sans-serif" font-weight="700" font-size="55" transform="matrix(1 0 0 1 2514.08 1794)">이동</text><g filter="url(#fx0)" transform="translate(780 838)"><g><rect x="21.9999" y="21.8748" width="323" height="137" fill="#FF0000"/></g></g><g clip-path="url(#clip31)" filter="url(#fx1)" transform="translate(869 832)"><g><path d="M28.9365 0 22.4927 0 22.4927-51.5103C21.2498-50.2674 19.2235-48.9233 16.4136-47.4778 13.6037-46.0323 11.0369-45.0259 8.71338-44.4585L8.71338-51.3481C11.6854-52.1857 14.8735-53.5501 18.2778-55.4414 21.6821-57.3327 24.3704-59.1699 26.3428-60.9531L28.9365-60.9531Z" fill="#FFFFFF" transform="matrix(1 0 0 1 71.8094 128)"/></g></g><rect x="802" y="853" width="323" height="137" fill="url(#fill32)"/><text fill="#FFFFFF" font-family="Malgun Gothic,Malgun Gothic_MSFontService,sans-serif" font-weight="400" font-size="83" transform="matrix(1 0 0 1 940.809 953)">1</text><g filter="url(#fx2)" transform="translate(1103 838)"><g><rect x="22.0001" y="21.8748" width="322" height="137" fill="#FF0000"/></g></g><g clip-path="url(#clip33)" filter="url(#fx3)" transform="translate(1192 832)"><g><path d="M32.665-43.729C32.665-47.2954 31.6113-50.0918 29.5039-52.1182 27.3965-54.1445 24.6001-55.1577 21.1147-55.1577 18.6291-55.1577 16.1434-54.516 13.6577-53.2327 11.172-51.9493 8.92952-50.1864 6.93018-47.9438L6.93018-54.9145C10.7938-58.7241 15.7922-60.6289 21.9253-60.6289 27.0317-60.6289 31.1453-59.1564 34.2659-56.2114 37.3865-53.2664 38.9468-49.2948 38.9468-44.2964 38.9468-40.0005 37.9471-36.2382 35.9478-33.0095 33.9484-29.7808 30.5441-26.4508 25.7349-23.0195 21.1958-19.8314 18.0414-17.4132 16.2717-15.7651 14.502-14.117 13.2592-12.5567 12.5432-11.0842 11.8272-9.61173 11.4692-7.8623 11.4692-5.83594L40.4058-5.83594 40.4058 0 4.62012 0 4.62012-2.91797C4.62012-6.18717 5.07267-8.9768 5.97778-11.2869 6.88289-13.5969 8.39591-15.8529 10.5168-18.0549 12.6378-20.2569 16.0353-22.979 20.7095-26.2212 24.9784-29.1662 28.0382-31.9693 29.8889-34.6306 31.7397-37.2919 32.665-40.3247 32.665-43.729Z" fill="#FFFFFF" transform="matrix(1 0 0 1 71.1971 128)"/></g></g><rect x="1125" y="853" width="322" height="137" fill="url(#fill34)"/><text fill="#FFFFFF" font-family="Malgun Gothic,Malgun Gothic_MSFontService,sans-serif" font-weight="400" font-size="83" transform="matrix(1 0 0 1 1263.2 953)">2</text><g filter="url(#fx4)" transform="translate(1425 838)"><g><rect x="21.9999" y="21.8748" width="322" height="137" fill="#FF0000"/></g></g><g clip-path="url(#clip35)" filter="url(#fx5)" transform="translate(1514 832)"><g><path d="M5.39014-9.32129C9.49691-6.0791 14.09-4.45801 19.1694-4.45801 23.3302-4.45801 26.6873-5.51172 29.2405-7.61914 31.7937-9.72656 33.0703-12.577 33.0703-16.1704 33.0703-24.1408 27.464-28.126 16.2515-28.126L11.3071-28.126 11.3071-33.5972 16.0083-33.5972C25.978-33.5972 30.9629-37.3257 30.9629-44.7827 30.9629-51.6724 27.1668-55.1172 19.5747-55.1172 15.3599-55.1172 11.4017-53.6717 7.70019-50.7808L7.70019-57.2246C11.4827-59.4941 15.9813-60.6289 21.1958-60.6289 25.951-60.6289 29.8619-59.3185 32.9285-56.6978 35.995-54.077 37.5283-50.6592 37.5283-46.4443 37.5283-38.6361 33.5431-33.5701 25.5728-31.2466L25.5728-31.125C29.8686-30.7467 33.2932-29.2472 35.8464-26.6265 38.3997-24.0057 39.6763-20.75 39.6763-16.8594 39.6763-11.4287 37.7107-7.09228 33.7795-3.8501 29.8484-0.60791 24.8568 1.01318 18.8047 1.01318 13.2389 1.01318 8.76741-0.0540365 5.39014-2.18848Z" fill="#FFFFFF" transform="matrix(1 0 0 1 71.4711 128)"/></g></g><rect x="1447" y="853" width="322" height="137" fill="url(#fill36)"/><text fill="#FFFFFF" font-family="Malgun Gothic,Malgun Gothic_MSFontService,sans-serif" font-weight="400" font-size="83" transform="matrix(1 0 0 1 1585.47 953)">3</text><g filter="url(#fx6)" transform="translate(458 838)"><g><rect x="21.9999" y="21.8748" width="322" height="137" fill="#FF0000"/></g></g><g clip-path="url(#clip37)" filter="url(#fx7)" transform="translate(547 832)"><g><path d="M5.39014-9.32129C9.49691-6.0791 14.09-4.45801 19.1694-4.45801 23.3302-4.45801 26.6873-5.51172 29.2405-7.61914 31.7937-9.72656 33.0703-12.577 33.0703-16.1704 33.0703-24.1408 27.464-28.126 16.2515-28.126L11.3071-28.126 11.3071-33.5972 16.0083-33.5972C25.978-33.5972 30.9629-37.3257 30.9629-44.7827 30.9629-51.6724 27.1668-55.1172 19.5747-55.1172 15.3599-55.1172 11.4017-53.6717 7.70019-50.7808L7.70019-57.2246C11.4827-59.4941 15.9813-60.6289 21.1958-60.6289 25.951-60.6289 29.8619-59.3185 32.9285-56.6978 35.995-54.077 37.5283-50.6592 37.5283-46.4443 37.5283-38.6361 33.5431-33.5701 25.5728-31.2466L25.5728-31.125C29.8686-30.7467 33.2932-29.2472 35.8464-26.6265 38.3997-24.0057 39.6763-20.75 39.6763-16.8594 39.6763-11.4287 37.7107-7.09228 33.7795-3.8501 29.8484-0.60791 24.8568 1.01318 18.8047 1.01318 13.2389 1.01318 8.76741-0.0540365 5.39014-2.18848Z" fill="#FFFFFF" transform="matrix(1 0 0 1 71.4221 128)"/></g></g><rect x="480" y="853" width="322" height="137" fill="url(#fill38)"/><text fill="#FFFFFF" font-family="Malgun Gothic,Malgun Gothic_MSFontService,sans-serif" font-weight="400" font-size="83" transform="matrix(1 0 0 1 618.422 953)">3</text><g filter="url(#fx8)" transform="translate(1747 838)"><g><rect x="21.9999" y="21.8748" width="323" height="137" fill="#FF0000"/></g></g><g clip-path="url(#clip39)" filter="url(#fx9)" transform="translate(1836 832)"><g><path d="M28.9365 0 22.4927 0 22.4927-51.5103C21.2498-50.2674 19.2235-48.9233 16.4136-47.4778 13.6037-46.0323 11.0369-45.0259 8.71338-44.4585L8.71338-51.3481C11.6854-52.1857 14.8735-53.5501 18.2778-55.4414 21.6821-57.3327 24.3704-59.1699 26.3428-60.9531L28.9365-60.9531Z" fill="#FFFFFF" transform="matrix(1 0 0 1 71.8588 128)"/></g></g><rect x="1769" y="853" width="323" height="137" fill="url(#fill40)"/><text fill="#FFFFFF" font-family="Malgun Gothic,Malgun Gothic_MSFontService,sans-serif" font-weight="400" font-size="83" transform="matrix(1 0 0 1 1907.86 953)">1</text><text font-family="HYPost-Light,HYPost-Light_MSFontService,sans-serif" font-weight="700" font-size="55" transform="matrix(1 0 0 1 1848.2 1064)">복제본</text><text font-family="HYPost-Light,HYPost-Light_MSFontService,sans-serif" font-weight="700" font-size="55" transform="matrix(1 0 0 1 1230.93 1064)">원본</text><text font-family="HYPost-Light,HYPost-Light_MSFontService,sans-serif" font-weight="700" font-size="55" transform="matrix(1 0 0 1 568.76 1064)">복제본</text><g filter="url(#fx10)" transform="translate(2714 837)"><g><rect x="22" y="21.8752" width="323" height="137" fill="#FF0000"/></g></g><g clip-path="url(#clip41)" filter="url(#fx11)" transform="translate(2803 831)"><g><path d="M28.9365 0 22.4927 0 22.4927-51.5103C21.2498-50.2674 19.2235-48.9233 16.4136-47.4778 13.6037-46.0323 11.0369-45.0259 8.71338-44.4585L8.71338-51.3481C11.6854-52.1857 14.8735-53.5501 18.2778-55.4414 21.6821-57.3327 24.3704-59.1699 26.3428-60.9531L28.9365-60.9531Z" fill="#FFFFFF" transform="matrix(1 0 0 1 71.9077 128)"/></g></g><rect x="2736" y="852" width="323" height="137" fill="url(#fill42)"/><text fill="#FFFFFF" font-family="Malgun Gothic,Malgun Gothic_MSFontService,sans-serif" font-weight="400" font-size="83" transform="matrix(1 0 0 1 2874.91 952)">1</text><g filter="url(#fx12)" transform="translate(3037 837)"><g><rect x="22" y="21.8752" width="322" height="137" fill="#FF0000"/></g></g><g clip-path="url(#clip43)" filter="url(#fx13)" transform="translate(3126 831)"><g><path d="M32.665-43.729C32.665-47.2954 31.6113-50.0918 29.5039-52.1182 27.3965-54.1445 24.6001-55.1577 21.1147-55.1577 18.6291-55.1577 16.1434-54.516 13.6577-53.2327 11.172-51.9493 8.92952-50.1864 6.93018-47.9438L6.93018-54.9145C10.7938-58.7241 15.7922-60.6289 21.9253-60.6289 27.0317-60.6289 31.1453-59.1564 34.2659-56.2114 37.3865-53.2664 38.9468-49.2948 38.9468-44.2964 38.9468-40.0005 37.9471-36.2382 35.9478-33.0095 33.9484-29.7808 30.5441-26.4508 25.7349-23.0195 21.1958-19.8314 18.0414-17.4132 16.2717-15.7651 14.502-14.117 13.2592-12.5567 12.5432-11.0842 11.8272-9.61173 11.4692-7.8623 11.4692-5.83594L40.4058-5.83594 40.4058 0 4.62012 0 4.62012-2.91797C4.62012-6.18717 5.07267-8.9768 5.97778-11.2869 6.88289-13.5969 8.39591-15.8529 10.5168-18.0549 12.6378-20.2569 16.0353-22.979 20.7095-26.2212 24.9784-29.1662 28.0382-31.9693 29.8889-34.6306 31.7397-37.2919 32.665-40.3247 32.665-43.729Z" fill="#FFFFFF" transform="matrix(1 0 0 1 71.2954 128)"/></g></g><rect x="3059" y="852" width="322" height="137" fill="url(#fill44)"/><text fill="#FFFFFF" font-family="Malgun Gothic,Malgun Gothic_MSFontService,sans-serif" font-weight="400" font-size="83" transform="matrix(1 0 0 1 3197.3 952)">2</text><g filter="url(#fx14)" transform="translate(3359 837)"><g><rect x="22.0002" y="21.8752" width="322" height="137" fill="#FF0000"/></g></g><g clip-path="url(#clip45)" filter="url(#fx15)" transform="translate(3448 831)"><g><path d="M5.39014-9.32129C9.49691-6.0791 14.09-4.45801 19.1694-4.45801 23.3302-4.45801 26.6873-5.51172 29.2405-7.61914 31.7937-9.72656 33.0703-12.577 33.0703-16.1704 33.0703-24.1408 27.464-28.126 16.2515-28.126L11.3071-28.126 11.3071-33.5972 16.0083-33.5972C25.978-33.5972 30.9629-37.3257 30.9629-44.7827 30.9629-51.6724 27.1668-55.1172 19.5747-55.1172 15.3599-55.1172 11.4017-53.6717 7.70019-50.7808L7.70019-57.2246C11.4827-59.4941 15.9813-60.6289 21.1958-60.6289 25.951-60.6289 29.8619-59.3185 32.9285-56.6978 35.995-54.077 37.5283-50.6592 37.5283-46.4443 37.5283-38.6361 33.5431-33.5701 25.5728-31.2466L25.5728-31.125C29.8686-30.7467 33.2932-29.2472 35.8464-26.6265 38.3997-24.0057 39.6763-20.75 39.6763-16.8594 39.6763-11.4287 37.7107-7.09228 33.7795-3.8501 29.8484-0.60791 24.8568 1.01318 18.8047 1.01318 13.2389 1.01318 8.76741-0.0540365 5.39014-2.18848Z" fill="#FFFFFF" transform="matrix(1 0 0 1 71.5693 128)"/></g></g><rect x="3381" y="852" width="322" height="137" fill="url(#fill46)"/><text fill="#FFFFFF" font-family="Malgun Gothic,Malgun Gothic_MSFontService,sans-serif" font-weight="400" font-size="83" transform="matrix(1 0 0 1 3519.57 952)">3</text><g filter="url(#fx16)" transform="translate(2392 837)"><g><rect x="22.0002" y="21.8752" width="322" height="137" fill="#FF0000"/></g></g><g clip-path="url(#clip47)" filter="url(#fx17)" transform="translate(2481 831)"><g><path d="M5.39014-9.32129C9.49691-6.0791 14.09-4.45801 19.1694-4.45801 23.3302-4.45801 26.6873-5.51172 29.2405-7.61914 31.7937-9.72656 33.0703-12.577 33.0703-16.1704 33.0703-24.1408 27.464-28.126 16.2515-28.126L11.3071-28.126 11.3071-33.5972 16.0083-33.5972C25.978-33.5972 30.9629-37.3257 30.9629-44.7827 30.9629-51.6724 27.1668-55.1172 19.5747-55.1172 15.3599-55.1172 11.4017-53.6717 7.70019-50.7808L7.70019-57.2246C11.4827-59.4941 15.9813-60.6289 21.1958-60.6289 25.951-60.6289 29.8619-59.3185 32.9285-56.6978 35.995-54.077 37.5283-50.6592 37.5283-46.4443 37.5283-38.6361 33.5431-33.5701 25.5728-31.2466L25.5728-31.125C29.8686-30.7467 33.2932-29.2472 35.8464-26.6265 38.3997-24.0057 39.6763-20.75 39.6763-16.8594 39.6763-11.4287 37.7107-7.09228 33.7795-3.8501 29.8484-0.60791 24.8568 1.01318 18.8047 1.01318 13.2389 1.01318 8.76741-0.0540365 5.39014-2.18848Z" fill="#FFFFFF" transform="matrix(1 0 0 1 71.5205 128)"/></g></g><rect x="2414" y="852" width="322" height="137" fill="url(#fill48)"/><text fill="#FFFFFF" font-family="Malgun Gothic,Malgun Gothic_MSFontService,sans-serif" font-weight="400" font-size="83" transform="matrix(1 0 0 1 2552.52 952)">3</text><g filter="url(#fx18)" transform="translate(3681 837)"><g><rect x="21.9998" y="21.8752" width="323" height="137" fill="#FF0000"/></g></g><g clip-path="url(#clip49)" filter="url(#fx19)" transform="translate(3770 831)"><g><path d="M28.9365 0 22.4927 0 22.4927-51.5103C21.2498-50.2674 19.2235-48.9233 16.4136-47.4778 13.6037-46.0323 11.0369-45.0259 8.71338-44.4585L8.71338-51.3481C11.6854-52.1857 14.8735-53.5501 18.2778-55.4414 21.6821-57.3327 24.3704-59.1699 26.3428-60.9531L28.9365-60.9531Z" fill="#FFFFFF" transform="matrix(1 0 0 1 71.957 128)"/></g></g><rect x="3703" y="852" width="323" height="137" fill="url(#fill50)"/><text fill="#FFFFFF" font-family="Malgun Gothic,Malgun Gothic_MSFontService,sans-serif" font-weight="400" font-size="83" transform="matrix(1 0 0 1 3841.96 952)">1</text><text font-family="HYPost-Light,HYPost-Light_MSFontService,sans-serif" font-weight="700" font-size="55" transform="matrix(1 0 0 1 3803.29 1063)">복제본</text><text font-family="HYPost-Light,HYPost-Light_MSFontService,sans-serif" font-weight="700" font-size="55" transform="matrix(1 0 0 1 3181.08 1063)">원본</text><text font-family="HYPost-Light,HYPost-Light_MSFontService,sans-serif" font-weight="700" font-size="55" transform="matrix(1 0 0 1 2513.86 1066)">복제본</text><text font-family="HYPost-Light,HYPost-Light_MSFontService,sans-serif" font-weight="700" font-size="55" transform="matrix(1 0 0 1 1715.57 1595)">(</text><text font-family="HYPost-Light,HYPost-Light_MSFontService,sans-serif" font-weight="700" font-size="55" transform="matrix(1 0 0 1 1742.5 1595)">왼쪽</text><text font-family="HYPost-Light,HYPost-Light_MSFontService,sans-serif" font-weight="700" font-size="55" transform="matrix(1 0 0 1 1867.97 1595)">드래그</text><text font-family="HYPost-Light,HYPost-Light_MSFontService,sans-serif" font-weight="700" font-size="55" transform="matrix(1 0 0 1 2029.53 1595)">)</text><g filter="url(#fx20)" transform="translate(1747 1129)"><g><rect x="21.9999" y="21.875" width="323" height="137" fill="#FF0000"/></g></g><g clip-path="url(#clip51)" filter="url(#fx21)" transform="translate(1836 1123)"><g><path d="M28.9365 0 22.4927 0 22.4927-51.5103C21.2498-50.2674 19.2235-48.9233 16.4136-47.4778 13.6037-46.0323 11.0369-45.0259 8.71338-44.4585L8.71338-51.3481C11.6854-52.1857 14.8735-53.5501 18.2778-55.4414 21.6821-57.3327 24.3704-59.1699 26.3428-60.9531L28.9365-60.9531Z" fill="#FFFFFF" transform="matrix(1 0 0 1 71.8588 128)"/></g></g><rect x="1769" y="1144" width="323" height="137" fill="url(#fill52)"/><text fill="#FFFFFF" font-family="Malgun Gothic,Malgun Gothic_MSFontService,sans-serif" font-weight="400" font-size="83" transform="matrix(1 0 0 1 1907.86 1244)">1</text><g filter="url(#fx22)" transform="translate(2070 1129)"><g><rect x="22" y="21.875" width="322" height="137" fill="#FF0000"/></g></g><g clip-path="url(#clip53)" filter="url(#fx23)" transform="translate(2159 1123)"><g><path d="M32.665-43.729C32.665-47.2954 31.6113-50.0918 29.5039-52.1182 27.3965-54.1445 24.6001-55.1577 21.1147-55.1577 18.6291-55.1577 16.1434-54.516 13.6577-53.2327 11.172-51.9493 8.92952-50.1864 6.93018-47.9438L6.93018-54.9145C10.7938-58.7241 15.7922-60.6289 21.9253-60.6289 27.0317-60.6289 31.1453-59.1564 34.2659-56.2114 37.3865-53.2664 38.9468-49.2948 38.9468-44.2964 38.9468-40.0005 37.9471-36.2382 35.9478-33.0095 33.9484-29.7808 30.5441-26.4508 25.7349-23.0195 21.1958-19.8314 18.0414-17.4132 16.2717-15.7651 14.502-14.117 13.2592-12.5567 12.5432-11.0842 11.8272-9.61173 11.4692-7.8623 11.4692-5.83594L40.4058-5.83594 40.4058 0 4.62012 0 4.62012-2.91797C4.62012-6.18717 5.07267-8.9768 5.97778-11.2869 6.88289-13.5969 8.39591-15.8529 10.5168-18.0549 12.6378-20.2569 16.0353-22.979 20.7095-26.2212 24.9784-29.1662 28.0382-31.9693 29.8889-34.6306 31.7397-37.2919 32.665-40.3247 32.665-43.729Z" fill="#FFFFFF" transform="matrix(1 0 0 1 71.2463 128)"/></g></g><rect x="2092" y="1144" width="322" height="137" fill="url(#fill54)"/><text fill="#FFFFFF" font-family="Malgun Gothic,Malgun Gothic_MSFontService,sans-serif" font-weight="400" font-size="83" transform="matrix(1 0 0 1 2230.25 1244)">2</text><g filter="url(#fx24)" transform="translate(2392 1129)"><g><rect x="22.0002" y="21.875" width="322" height="137" fill="#FF0000"/></g></g><g clip-path="url(#clip55)" filter="url(#fx25)" transform="translate(2481 1123)"><g><path d="M5.39014-9.32129C9.49691-6.0791 14.09-4.45801 19.1694-4.45801 23.3302-4.45801 26.6873-5.51172 29.2405-7.61914 31.7937-9.72656 33.0703-12.577 33.0703-16.1704 33.0703-24.1408 27.464-28.126 16.2515-28.126L11.3071-28.126 11.3071-33.5972 16.0083-33.5972C25.978-33.5972 30.9629-37.3257 30.9629-44.7827 30.9629-51.6724 27.1668-55.1172 19.5747-55.1172 15.3599-55.1172 11.4017-53.6717 7.70019-50.7808L7.70019-57.2246C11.4827-59.4941 15.9813-60.6289 21.1958-60.6289 25.951-60.6289 29.8619-59.3185 32.9285-56.6978 35.995-54.077 37.5283-50.6592 37.5283-46.4443 37.5283-38.6361 33.5431-33.5701 25.5728-31.2466L25.5728-31.125C29.8686-30.7467 33.2932-29.2472 35.8464-26.6265 38.3997-24.0057 39.6763-20.75 39.6763-16.8594 39.6763-11.4287 37.7107-7.09228 33.7795-3.8501 29.8484-0.60791 24.8568 1.01318 18.8047 1.01318 13.2389 1.01318 8.76741-0.0540365 5.39014-2.18848Z" fill="#FFFFFF" transform="matrix(1 0 0 1 71.5205 128)"/></g></g><rect x="2414" y="1144" width="322" height="137" fill="url(#fill56)"/><text fill="#FFFFFF" font-family="Malgun Gothic,Malgun Gothic_MSFontService,sans-serif" font-weight="400" font-size="83" transform="matrix(1 0 0 1 2552.52 1244)">3</text><g filter="url(#fx26)" transform="translate(1425 1129)"><g><rect x="21.9999" y="21.875" width="322" height="137" fill="#FF0000"/></g></g><g clip-path="url(#clip57)" filter="url(#fx27)" transform="translate(1514 1123)"><g><path d="M5.39014-9.32129C9.49691-6.0791 14.09-4.45801 19.1694-4.45801 23.3302-4.45801 26.6873-5.51172 29.2405-7.61914 31.7937-9.72656 33.0703-12.577 33.0703-16.1704 33.0703-24.1408 27.464-28.126 16.2515-28.126L11.3071-28.126 11.3071-33.5972 16.0083-33.5972C25.978-33.5972 30.9629-37.3257 30.9629-44.7827 30.9629-51.6724 27.1668-55.1172 19.5747-55.1172 15.3599-55.1172 11.4017-53.6717 7.70019-50.7808L7.70019-57.2246C11.4827-59.4941 15.9813-60.6289 21.1958-60.6289 25.951-60.6289 29.8619-59.3185 32.9285-56.6978 35.995-54.077 37.5283-50.6592 37.5283-46.4443 37.5283-38.6361 33.5431-33.5701 25.5728-31.2466L25.5728-31.125C29.8686-30.7467 33.2932-29.2472 35.8464-26.6265 38.3997-24.0057 39.6763-20.75 39.6763-16.8594 39.6763-11.4287 37.7107-7.09228 33.7795-3.8501 29.8484-0.60791 24.8568 1.01318 18.8047 1.01318 13.2389 1.01318 8.76741-0.0540365 5.39014-2.18848Z" fill="#FFFFFF" transform="matrix(1 0 0 1 71.4714 128)"/></g></g><rect x="1447" y="1144" width="322" height="137" fill="url(#fill58)"/><text fill="#FFFFFF" font-family="Malgun Gothic,Malgun Gothic_MSFontService,sans-serif" font-weight="400" font-size="83" transform="matrix(1 0 0 1 1585.47 1244)">3</text><g filter="url(#fx28)" transform="translate(2714 1129)"><g><rect x="22" y="21.875" width="323" height="137" fill="#FF0000"/></g></g><g clip-path="url(#clip59)" filter="url(#fx29)" transform="translate(2803 1123)"><g><path d="M28.9365 0 22.4927 0 22.4927-51.5103C21.2498-50.2674 19.2235-48.9233 16.4136-47.4778 13.6037-46.0323 11.0369-45.0259 8.71338-44.4585L8.71338-51.3481C11.6854-52.1857 14.8735-53.5501 18.2778-55.4414 21.6821-57.3327 24.3704-59.1699 26.3428-60.9531L28.9365-60.9531Z" fill="#FFFFFF" transform="matrix(1 0 0 1 71.9082 128)"/></g></g><rect x="2736" y="1144" width="323" height="137" fill="url(#fill60)"/><text fill="#FFFFFF" font-family="Malgun Gothic,Malgun Gothic_MSFontService,sans-serif" font-weight="400" font-size="83" transform="matrix(1 0 0 1 2874.91 1244)">1</text><text font-family="HYPost-Light,HYPost-Light_MSFontService,sans-serif" font-weight="700" font-size="55" transform="matrix(1 0 0 1 2828.13 1355)">복제본</text><text font-family="HYPost-Light,HYPost-Light_MSFontService,sans-serif" font-weight="700" font-size="55" transform="matrix(1 0 0 1 2190.38 1355)">원본</text><text font-family="HYPost-Light,HYPost-Light_MSFontService,sans-serif" font-weight="700" font-size="55" transform="matrix(1 0 0 1 1524.36 1355)">복제본</text><path d="M3059.5 989.5 3059.5 1144.39" stroke="#FF0000" stroke-width="6.875" stroke-linecap="square" stroke-miterlimit="8" stroke-dasharray="20.625 6.875" fill="none" fill-rule="evenodd"/><path d="M1447.5 989.5 1447.5 1144.39" stroke="#FF0000" stroke-width="6.875" stroke-linecap="square" stroke-miterlimit="8" stroke-dasharray="20.625 6.875" fill="none" fill-rule="evenodd"/><path d="M1772.89 1483.78 2733.14 1483.78 2733.14 1487.22 1772.89 1487.22ZM1799.54 1503.03 1769.49 1485.5 1799.54 1467.97C1800.36 1467.5 1801.41 1467.77 1801.89 1468.59 1802.37 1469.41 1802.09 1470.46 1801.27 1470.94L1773.77 1486.98 1773.77 1484.02 1801.27 1500.06C1802.09 1500.54 1802.37 1501.59 1801.89 1502.41 1801.41 1503.23 1800.36 1503.5 1799.54 1503.03ZM2706.51 1467.97 2736.56 1485.5 2706.51 1503.03C2705.69 1503.5 2704.64 1503.23 2704.16 1502.41 2703.68 1501.59 2703.96 1500.54 2704.78 1500.06L2732.28 1484.02 2732.28 1486.98 2704.78 1470.94C2703.96 1470.46 2703.68 1469.41 2704.16 1468.59 2704.64 1467.77 2705.69 1467.5 2706.51 1467.97Z" fill="#ED7D31"/></g></svg>